<svg width="40" height="40" viewBox="0 0 40 40" fill="none" xmlns="http://www.w3.org/2000/svg">
<g clip-path="url(#clip0_2266_847)">
<path d="M31.8743 3.94286C32.3486 3.65714 32.92 3.46857 33.4914 3.46857C35.2 3.46857 36.5771 4.84572 36.5771 6.55429C36.5771 7.12571 36.4343 7.69714 36.1486 8.17143C38.5714 11.4971 39.9943 15.5829 39.9943 20C39.9943 31.0686 31.0629 40 19.9943 40C8.92571 40 0 31.0686 0 20C0 8.93143 8.93143 0 20 0C24.4629 0.0457143 28.5486 1.52 31.8743 3.94286Z" fill="white"/>
<path d="M34.5821 9.50274C34.2506 9.64559 33.8678 9.69131 33.4906 9.69131C31.7821 9.69131 30.4049 8.31417 30.4049 6.60559C30.4049 6.22274 30.5021 5.84559 30.5935 5.51417C27.6506 3.37702 23.9878 2.09131 20.0449 2.09131C10.1192 2.09131 2.04492 10.1199 2.04492 20.0456C2.04492 29.9713 10.0735 38.0056 20.0049 38.0056C29.9821 38.0513 38.0106 29.977 38.0106 20.0456C38.0106 16.1027 36.7306 12.4913 34.5878 9.49702L34.5821 9.50274Z" fill="#ED2424"/>
<path d="M34.5832 9.50274C34.2518 9.6456 33.8689 9.69131 33.4918 9.69131C31.7832 9.69131 30.4061 8.31417 30.4061 6.6056C30.4061 6.22274 30.4518 5.84559 30.5947 5.51417C27.6518 3.37702 23.9889 2.09131 20.0461 2.09131C10.1204 2.09131 2.0918 10.1199 2.0918 20.0456C2.0918 29.9713 10.1204 38.0056 20.0518 38.0056C29.9832 38.0056 38.0118 29.977 38.0118 20.0456C38.0118 16.1027 36.7318 12.4913 34.5889 9.49702L34.5832 9.50274Z" stroke="#ED2424" stroke-width="0.136153" stroke-miterlimit="3.86"/>
<path d="M31.8281 6.55428C31.8281 5.6057 32.5881 4.8457 33.5367 4.8457C34.4853 4.8457 35.2453 5.6057 35.2453 6.55428C35.2453 7.50285 34.4853 8.26285 33.5367 8.26285C32.5881 8.26285 31.8281 7.50285 31.8281 6.55428Z" fill="#ED2424"/>
<path d="M33.4918 8.26724C34.4346 8.26724 35.2003 7.50153 35.2003 6.55867C35.2003 5.61581 34.4346 4.8501 33.4918 4.8501C32.5489 4.8501 31.7832 5.61581 31.7832 6.55867C31.7832 7.50153 32.5489 8.26724 33.4918 8.26724Z" stroke="#ED2424" stroke-width="0.136153" stroke-miterlimit="3.86"/>
<path d="M35.9131 15.7256L32.0674 25.8913H29.8331L31.3074 22.5656L28.6445 15.7256H30.8788L32.3017 20.1427H32.3988L33.7302 15.7256H35.9131Z" fill="#FDF737"/>
<path d="M28.3133 20.8571C28.3133 22.4742 26.5533 23.0914 24.8447 23.0914C23.1362 23.0914 21.4219 22.4742 21.4219 20.8571H23.6047C23.6047 21.3771 24.319 21.5199 24.839 21.5199C25.359 21.5199 26.0276 21.3771 26.0276 20.9028C26.0276 20.2857 25.2219 20.1885 23.8904 19.8571C22.559 19.5257 21.5647 18.9085 21.5647 17.6228C21.5647 16.0057 23.1304 15.4399 24.7933 15.4399C26.4562 15.4399 27.9762 16.0114 27.9762 17.5771H25.7933C25.7933 17.1485 25.2219 16.9599 24.7933 16.9599C24.319 16.9599 23.7933 17.0571 23.7933 17.5314C23.7933 18.1485 24.7419 18.1942 25.7876 18.4799C27.1647 18.9085 28.3076 19.4285 28.3076 20.8571H28.3133Z" fill="#FDF737"/>
<path d="M18.1492 19.2867C18.1492 18.3381 17.6292 17.4352 16.3892 17.4352C15.1492 17.4352 14.7721 18.4352 14.7721 19.2867C14.7721 20.1895 15.2463 21.1381 16.4806 21.1381C17.7149 21.1381 18.1435 20.1381 18.1435 19.2867H18.1492ZM20.2406 22.8524H18.2006V22.0467H18.1035C17.7721 22.7609 17.0578 23.1381 16.0121 23.1381C14.2063 23.1381 12.6406 21.6638 12.6406 19.3381C12.6406 17.0124 14.0635 15.5381 15.8692 15.5381C16.8692 15.5381 17.7206 15.9667 18.1035 16.5838H18.2006V15.7781H20.2921L20.2463 22.8581L20.2406 22.8524Z" fill="#FDF737"/>
<path d="M25.936 25.9374C20.2846 25.1774 14.6274 25.1317 5.83887 25.7488L5.93601 25.366C14.7246 24.606 21.6617 24.1774 25.416 24.3202C27.6503 24.366 28.3132 24.5602 28.3132 25.366C28.3589 26.1717 27.3646 26.126 25.936 25.9374Z" fill="#FDF737"/>
<path d="M9.26294 18.5258C9.21722 18.0973 8.97722 17.2458 7.78865 17.2458C6.69722 17.2458 6.36579 18.1487 6.31436 18.5258H9.25722H9.26294ZM11.4458 19.2401C11.4458 19.5258 11.4001 19.9544 11.4001 19.9544H6.26865C6.31436 20.7601 6.93151 21.3773 7.78865 21.3773C8.40579 21.3773 8.83436 21.1373 9.02294 20.7144H11.2572C11.0687 21.7601 10.1658 23.0915 7.83436 23.0915C5.50294 23.0915 4.08008 21.3315 4.08008 19.2458C4.08008 17.1601 5.45722 15.543 7.69151 15.543C9.92579 15.543 11.4458 17.1087 11.4458 19.2458V19.2401Z" fill="#FDF737"/>
<path d="M11.0684 30.4065C11.1656 30.3093 11.3084 30.2179 11.4513 30.1665C11.5942 30.1208 11.737 30.0693 11.8799 30.0693C12.0227 30.0693 12.1656 30.1151 12.3084 30.1665C12.4513 30.2122 12.5942 30.3093 12.6913 30.4065L12.8342 30.5493L12.5027 30.8808L12.3599 30.6922C12.3142 30.6465 12.217 30.5951 12.1199 30.5493C12.0227 30.5036 11.9313 30.5036 11.8799 30.5036C11.7827 30.5036 11.6913 30.5036 11.6399 30.5493C11.5427 30.5951 11.497 30.6465 11.3999 30.6922C11.3542 30.7379 11.3027 30.8351 11.257 30.9322C11.2113 31.0293 11.2113 31.1208 11.2113 31.1722C11.2113 31.2693 11.2113 31.3608 11.257 31.4122C11.3027 31.5093 11.3542 31.5551 11.3999 31.6522C11.5427 31.7951 11.6856 31.8408 11.8742 31.8408C11.9713 31.8408 12.0627 31.8408 12.1142 31.7951C12.2113 31.7493 12.257 31.6979 12.3542 31.6522L12.497 31.5093L12.8284 31.8408L12.6856 31.9836C12.5884 32.0808 12.4456 32.1722 12.3027 32.2236C12.1599 32.2693 12.017 32.3208 11.8742 32.3208C11.7313 32.3208 11.5884 32.2751 11.4456 32.2236C11.3027 32.1779 11.2056 32.0808 11.0627 31.9836C10.9656 31.8865 10.8742 31.7436 10.8227 31.6008C10.777 31.4579 10.7256 31.3151 10.7256 31.1722C10.7256 31.0293 10.7713 30.8865 10.8227 30.7436C10.8684 30.6465 10.9656 30.5036 11.0627 30.4122L11.0684 30.4065Z" fill="white"/>
<path d="M13.6351 30.6912C13.4922 30.8341 13.4465 30.9769 13.4465 31.1655C13.4465 31.2627 13.4465 31.3541 13.4922 31.4512C13.5379 31.4055 13.5894 31.3541 13.6808 31.2627C13.7779 31.1655 13.8694 31.0741 13.9208 31.0227C14.0179 30.9255 14.1094 30.8341 14.2065 30.7369C14.3037 30.6398 14.3494 30.5941 14.3951 30.5484C14.2522 30.5027 14.1551 30.4512 14.0122 30.5027C13.8694 30.5484 13.7265 30.5998 13.6294 30.6912H13.6351ZM14.7265 31.4969L15.0579 31.8284L14.9151 31.9712C14.8179 32.0684 14.6751 32.1598 14.5322 32.2112C14.3894 32.2569 14.2465 32.3084 14.1036 32.3084C13.9608 32.3084 13.8179 32.2627 13.6751 32.2112C13.5322 32.1655 13.4351 32.0684 13.2922 31.9712C13.1951 31.8741 13.1036 31.7312 13.0522 31.5884C13.0065 31.4455 12.9551 31.3027 12.9551 31.1598C12.9551 31.0169 13.0008 30.8741 13.0522 30.7312C13.0979 30.5884 13.1951 30.4912 13.2922 30.3484C13.3894 30.2512 13.5322 30.1598 13.6751 30.1084C13.8179 30.0627 13.9608 30.0112 14.1036 30.0112C14.2465 30.0112 14.3894 30.0569 14.5322 30.1084C14.6751 30.1598 14.8179 30.2512 14.9151 30.3484L15.0579 30.4912L13.8236 31.7255C13.9665 31.7712 14.0637 31.8227 14.2065 31.7712C14.3494 31.7712 14.4922 31.6741 14.5894 31.5827L14.7322 31.4855L14.7265 31.4969Z" fill="white"/>
<path d="M15.2002 31.1665C15.2002 31.0236 15.2459 30.8808 15.2973 30.7379C15.3431 30.5951 15.4402 30.4979 15.5373 30.4065C15.6345 30.3093 15.7773 30.2179 15.9202 30.1665C16.0631 30.1208 16.2059 30.0693 16.3488 30.0693C16.4916 30.0693 16.6345 30.1151 16.7773 30.1665C16.9202 30.2122 17.0173 30.3093 17.1602 30.4065C17.2573 30.5036 17.3488 30.6465 17.4002 30.7379C17.4459 30.8808 17.4973 31.0236 17.4973 31.1665V32.3093H17.0688V31.1665C17.0688 31.0693 17.0688 30.9779 17.0231 30.9265C16.9773 30.8293 16.9259 30.7836 16.8802 30.6865C16.8345 30.6408 16.7373 30.5893 16.6402 30.5436C16.5431 30.4979 16.4516 30.4979 16.3545 30.4979C16.2573 30.4979 16.1659 30.4979 16.0688 30.5436C15.9716 30.5893 15.9259 30.6408 15.8802 30.6865C15.8345 30.7322 15.7831 30.8293 15.7373 30.9265C15.6916 31.0236 15.6916 31.0693 15.6916 31.1665V32.3093H15.2173V31.1665H15.2002Z" fill="white"/>
<path d="M17.9092 30.4065C18.0064 30.3093 18.1492 30.2179 18.2921 30.1665C18.4349 30.1208 18.5778 30.0693 18.7207 30.0693C18.8635 30.0693 19.0064 30.1151 19.1492 30.1665C19.2921 30.2179 19.4349 30.3093 19.5321 30.4065L19.6749 30.5493L19.3435 30.8808L19.2007 30.7379C19.1549 30.6922 19.0578 30.6408 18.9607 30.5951C18.8635 30.5493 18.7721 30.5493 18.7207 30.5493C18.6235 30.5493 18.5321 30.5493 18.4807 30.5951C18.3835 30.6408 18.3378 30.6922 18.2407 30.7379C18.1949 30.7836 18.1435 30.8808 18.0978 30.9779C18.0521 31.075 18.0521 31.1665 18.0521 31.2179C18.0521 31.3151 18.0521 31.4065 18.0978 31.4579C18.1435 31.555 18.1949 31.6008 18.2407 31.6979C18.3835 31.8408 18.5264 31.8865 18.7149 31.8865C18.8121 31.8865 18.9035 31.8865 18.9549 31.8408C19.0521 31.7951 19.0978 31.7436 19.1949 31.6979L19.3378 31.5551L19.6692 31.8865L19.4807 31.9836C19.3835 32.0808 19.2407 32.1722 19.0978 32.2236C18.9549 32.2693 18.8121 32.3208 18.6692 32.3208C18.5264 32.3208 18.3835 32.275 18.2407 32.2236C18.0978 32.1779 18.0007 32.0808 17.8635 31.9836C17.7664 31.8865 17.6749 31.7436 17.6235 31.6008C17.5778 31.4579 17.5264 31.315 17.5264 31.1722C17.5264 31.0293 17.5721 30.8865 17.6235 30.7436C17.7207 30.6465 17.8121 30.5036 17.9092 30.4122V30.4065Z" fill="white"/>
<path d="M20.2354 31.1665C20.2354 31.2636 20.2354 31.3551 20.2811 31.4522C20.3268 31.5493 20.3782 31.5951 20.4239 31.6922C20.4696 31.7379 20.5668 31.7893 20.6639 31.8351C20.7611 31.8808 20.8525 31.8808 20.9496 31.8808C21.0468 31.8808 21.1382 31.8808 21.2354 31.8351C21.3325 31.7893 21.3782 31.7379 21.4754 31.6922C21.5211 31.6465 21.5725 31.5493 21.6182 31.4522C21.6639 31.3551 21.6639 31.2636 21.6639 31.1665C21.6639 31.0693 21.6639 30.9779 21.6182 30.9265C21.5725 30.8293 21.5211 30.7836 21.4754 30.6865C21.4296 30.6408 21.3325 30.5893 21.2354 30.5436C21.1382 30.4979 21.0468 30.4979 20.9496 30.4979C20.8525 30.4979 20.7611 30.4979 20.6639 30.5436C20.5668 30.5893 20.5211 30.6408 20.4239 30.6865C20.3782 30.7322 20.3268 30.8293 20.2811 30.9265C20.2811 31.0236 20.2354 31.0693 20.2354 31.1665ZM19.8125 31.1665C19.8125 31.0236 19.8582 30.8808 19.9096 30.7379C19.9554 30.5951 20.0525 30.4979 20.1496 30.4065C20.2468 30.3093 20.3896 30.2179 20.5325 30.1665C20.6754 30.1151 20.8182 30.0693 20.9611 30.0693C21.1039 30.0693 21.2468 30.1151 21.3896 30.1665C21.5325 30.2122 21.6296 30.3093 21.7725 30.4065C21.8696 30.5036 21.9611 30.6465 22.0125 30.7379C22.0582 30.8808 22.1096 31.0236 22.1096 31.1665C22.1096 31.3093 22.0639 31.4522 22.0125 31.5951C21.9668 31.7379 21.8696 31.8351 21.7725 31.9779C21.6754 32.0751 21.5325 32.1665 21.3896 32.2179C21.2468 32.2636 21.1039 32.3151 20.9611 32.3151C20.8182 32.3151 20.6754 32.2693 20.5325 32.2179C20.3896 32.1722 20.2925 32.0751 20.1496 31.9779C20.0525 31.8808 19.9611 31.7379 19.9096 31.5951C19.8639 31.4979 19.8125 31.3551 19.8125 31.1665Z" fill="white"/>
<path d="M24.1818 30.0693V30.4979H22.8504C22.8046 30.4979 22.7532 30.4979 22.7075 30.5436C22.6618 30.5893 22.6618 30.6408 22.6618 30.6865C22.6618 30.7322 22.6618 30.7836 22.7075 30.8293C22.7532 30.8751 22.8046 30.875 22.8504 30.875H23.7532C23.8504 30.875 23.9418 30.8751 23.9932 30.9208C24.0904 30.9665 24.1361 31.0179 24.1818 31.0636C24.2275 31.1093 24.2789 31.2065 24.3246 31.3036C24.3704 31.4008 24.3704 31.4465 24.3704 31.5436C24.3704 31.6408 24.3704 31.7322 24.3246 31.8293C24.2789 31.9265 24.2275 31.9722 24.1818 32.0693C24.1361 32.115 24.0389 32.1665 23.9932 32.2122C23.8961 32.2579 23.8046 32.2579 23.7532 32.2579H22.4218V31.8293H23.7532C23.7989 31.8293 23.8961 31.8293 23.8961 31.7836C23.9418 31.7379 23.9418 31.6865 23.9418 31.6408C23.9418 31.595 23.9418 31.5436 23.8961 31.4979C23.8504 31.4522 23.7989 31.4522 23.7532 31.4522H22.8504C22.7532 31.4522 22.6618 31.4522 22.5646 31.4065C22.4675 31.3608 22.4218 31.3093 22.3761 31.2636C22.3304 31.2179 22.2789 31.1208 22.2332 31.0751C22.1875 30.9779 22.1875 30.8865 22.1875 30.7893C22.1875 30.6922 22.1875 30.6008 22.2332 30.5493C22.2789 30.4522 22.3304 30.4065 22.3761 30.3093C22.4218 30.2636 22.5189 30.2122 22.5646 30.1665C22.6618 30.1208 22.7532 30.1208 22.8504 30.1208H24.1818V30.0751V30.0693Z" fill="white"/>
<path d="M26.7952 30.0693V31.1608C26.7952 31.3036 26.7495 31.4465 26.698 31.5893C26.6523 31.7322 26.5552 31.8293 26.458 31.9722C26.3609 32.0693 26.218 32.1608 26.0752 32.2122C25.9323 32.2579 25.7895 32.3093 25.6466 32.3093C25.5038 32.3093 25.3609 32.2636 25.218 32.2122C25.0752 32.1665 24.978 32.0693 24.8352 31.9722C24.738 31.8751 24.6466 31.7322 24.5952 31.5893C24.5495 31.4465 24.498 31.3036 24.498 31.1608V30.0693H24.9266V31.1608C24.9266 31.2579 24.9266 31.3493 24.9723 31.4465C25.018 31.5436 25.0695 31.5893 25.1152 31.6865C25.1609 31.7322 25.258 31.7836 25.3552 31.8293C25.4523 31.8751 25.5438 31.8751 25.6409 31.8751C25.738 31.8751 25.8295 31.8751 25.9266 31.8293C26.0238 31.7836 26.0695 31.7322 26.1666 31.6865C26.2123 31.6408 26.2638 31.5436 26.3095 31.4465C26.3552 31.3493 26.3552 31.2579 26.3552 31.1608V30.0693H26.7838H26.7952Z" fill="white"/>
<path d="M28.0286 31.8284C28.1258 31.8284 28.2172 31.8284 28.2686 31.7827C28.3658 31.737 28.4115 31.6855 28.4572 31.6398C28.5029 31.5941 28.5544 31.497 28.6001 31.3998C28.6458 31.3027 28.6458 31.2112 28.6458 31.1141V30.4512H28.0286C27.9315 30.4512 27.8401 30.4512 27.7429 30.497C27.6458 30.5427 27.6001 30.5941 27.5029 30.6398C27.4572 30.6855 27.4058 30.7827 27.3601 30.8798C27.3144 30.977 27.3144 31.0227 27.3144 31.1198C27.3144 31.217 27.3144 31.3084 27.3601 31.4055C27.4058 31.5027 27.4572 31.5484 27.5029 31.6455C27.5486 31.6912 27.6458 31.7427 27.7429 31.7884C27.8401 31.8341 27.9315 31.8341 28.0286 31.8341V31.8284ZM29.1715 29.1712V31.1655C29.1715 31.3084 29.1258 31.4512 29.0744 31.5941C29.0286 31.737 28.9315 31.8341 28.8344 31.977C28.7372 32.0741 28.5944 32.1655 28.5029 32.217C28.3601 32.2627 28.2172 32.3141 28.0744 32.3141C27.9315 32.3141 27.7886 32.2684 27.6458 32.217C27.5029 32.1712 27.4058 32.0741 27.2629 31.977C27.1658 31.8798 27.0744 31.737 27.0229 31.5941C26.9772 31.4512 26.9258 31.3084 26.9258 31.1655C26.9258 31.0227 26.9715 30.8798 27.0229 30.737C27.0686 30.5941 27.1658 30.497 27.2629 30.4055C27.3601 30.3084 27.5029 30.217 27.6458 30.1655C27.7886 30.1198 27.9315 30.0684 28.0744 30.0684H28.7372V29.1655H29.1658L29.1715 29.1712Z" fill="white"/>
</g>
<defs>
<clipPath id="clip0_2266_847">
<rect width="40" height="40" fill="white"/>
</clipPath>
</defs>
</svg>
