<svg version="1.2" xmlns="http://www.w3.org/2000/svg" viewBox="0 0 64 64" width="64" height="64"><style>.a{fill:none;stroke:#000;stroke-width:4}</style><path class="a" d="m37.2 43.5q-1 0.6-2.1 1.1-1.1 0.4-2.3 0.8-1.2 0.3-2.4 0.4-1.2 0.2-2.4 0.2-1.8 0-3.5-0.3-1.8-0.4-3.4-1.1-1.6-0.6-3.1-1.6-1.5-1-2.7-2.3-1.3-1.2-2.3-2.7-1-1.5-1.6-3.1-0.7-1.6-1.1-3.4-0.3-1.7-0.3-3.5c0-5 2-9.5 5.3-12.7q1.2-1.3 2.7-2.3 1.5-1 3.1-1.6 1.6-0.7 3.4-1.1 1.7-0.3 3.5-0.3c5 0 9.5 2 12.7 5.3q1.3 1.2 2.3 2.7 1 1.5 1.6 3.1 0.7 1.6 1.1 3.4 0.3 1.7 0.3 3.5 0 1.2-0.2 2.4-0.1 1.2-0.4 2.3-0.3 1.2-0.8 2.3-0.5 1.1-1.1 2.1c-1.3 2.3-1.1 5.3 0.8 7.2l10.3 10.3"/></svg>